{
  "source": "C:\\Users\\Peter\\Desktop\\stuff\\MIUN\\quantitative_research\\video_compression\\videos\\BVI-HD\\BVI-HD_CDVL_videos\\ORIG\\ParkPlay_1920x1080_50fps.mp4",
  "output": "C:\\Users\\Peter\\Desktop\\stuff\\MIUN\\quantitative_research\\video_compression\\compressed_videos\\BVI-HD\\vp9\\2.5\\ParkPlay_1920x1080_50fps_vp9.webm",
  "codec": "vp9",
  "ok": "Input #0, mov,mp4,m4a,3gp,3g2,mj2, from 'C:\\Users\\Peter\\Desktop\\stuff\\MIUN\\quantitative_research\\video_compression\\videos\\BVI-HD\\BVI-HD_CDVL_videos\\ORIG\\ParkPlay_1920x1080_50fps.mp4':\n  Metadata:\n    major_brand     : isom\n    minor_version   : 512\n    compatible_brands: isomiso2avc1mp41\n    encoder         : Lavf54.28.101\n  Duration: 00:00:05.00, start: 0.000000, bitrate: 620563 kb/s\n  Stream #0:0[0x1](und): Video: h264 (High 4:4:4 Predictive) (avc1 / 0x31637661), yuv420p(progressive), 1920x1080, 620558 kb/s, 50 fps, 50 tbr, 50 tbn (default)\n    Metadata:\n      handler_name    : VideoHandler\n      vendor_id       : [0][0][0][0]\n[out#0/webm @ 0000021e2204f040] Codec AVOption b:a (set bitrate (in bits/s)) has not been used for any stream. The most likely reason is either wrong type (e.g. a video option with no video streams) or that it is a private option of some decoder which was not actually used for any stream.\nStream mapping:\n  Stream #0:0 -> #0:0 (h264 (native) -> vp9 (libvpx-vp9))\nPress [q] to stop, [?] for help\n[libvpx-vp9 @ 0000021e21e50980] v1.15.2-100-g40561f514\nOutput #0, webm, to 'C:\\Users\\Peter\\Desktop\\stuff\\MIUN\\quantitative_research\\video_compression\\compressed_videos\\BVI-HD\\vp9\\2.5\\ParkPlay_1920x1080_50fps_vp9.webm':\n  Metadata:\n    major_brand     : isom\n    minor_version   : 512\n    compatible_brands: isomiso2avc1mp41\n    encoder         : Lavf62.3.100\n  Stream #0:0(und): Video: vp9, yuv420p(tv, progressive), 1920x1080, q=2-31, 2500 kb/s, 50 fps, 1k tbn (default)\n    Metadata:\n      encoder         : Lavc62.11.100 libvpx-vp9\n      handler_name    : VideoHandler\n      vendor_id       : [0][0][0][0]\n    Side data:\n      cpb: bitrate max/min/avg: 0/0/0 buffer size: 2500000 vbv_delay: N/A\nframe=    0 fps=0.0 q=0.0 size=       0KiB time=N/A bitrate=N/A speed=N/A elapsed=0:00:00.50    \nframe=    0 fps=0.0 q=0.0 size=       0KiB time=N/A bitrate=N/A speed=N/A elapsed=0:00:01.07    \nframe=    6 fps=3.8 q=60.0 size=       1KiB time=00:00:00.12 bitrate=  42.3kbits/s speed=0.0756x elapsed=0:00:01.58    \nframe=   11 fps=5.2 q=59.0 size=       1KiB time=00:00:00.22 bitrate=  23.1kbits/s speed=0.105x elapsed=0:00:02.10    \nframe=   16 fps=6.0 q=59.0 size=       1KiB time=00:00:00.32 bitrate=  15.8kbits/s speed=0.121x elapsed=0:00:02.64    \nframe=   21 fps=6.6 q=58.0 size=       1KiB time=00:00:00.42 bitrate=  12.1kbits/s speed=0.133x elapsed=0:00:03.16    \nframe=   25 fps=6.8 q=58.0 size=       1KiB time=00:00:00.48 bitrate=  10.6kbits/s speed=0.13x elapsed=0:00:03.68    \nframe=   29 fps=6.9 q=59.0 size=       1KiB time=00:00:00.58 bitrate=   8.7kbits/s speed=0.137x elapsed=0:00:04.21    \nframe=   33 fps=7.0 q=59.0 size=       1KiB time=00:00:00.66 bitrate=   7.7kbits/s speed=0.139x elapsed=0:00:04.74    \nframe=   38 fps=7.2 q=58.0 size=       1KiB time=00:00:00.76 bitrate=   6.7kbits/s speed=0.144x elapsed=0:00:05.28    \nframe=   42 fps=7.2 q=58.0 size=       1KiB time=00:00:00.84 bitrate=   6.0kbits/s speed=0.144x elapsed=0:00:05.83    \nframe=   45 fps=7.1 q=59.0 size=       1KiB time=00:00:00.90 bitrate=   5.6kbits/s speed=0.141x elapsed=0:00:06.36    \nframe=   50 fps=7.3 q=60.0 size=       1KiB time=00:00:01.00 bitrate=   5.1kbits/s speed=0.145x elapsed=0:00:06.88    \nframe=   54 fps=7.3 q=59.0 size=       1KiB time=00:00:01.08 bitrate=   4.7kbits/s speed=0.146x elapsed=0:00:07.40    \nframe=   57 fps=7.2 q=59.0 size=       1KiB time=00:00:01.14 bitrate=   4.4kbits/s speed=0.144x elapsed=0:00:07.91    \nframe=   62 fps=7.3 q=58.0 size=       1KiB time=00:00:01.24 bitrate=   4.1kbits/s speed=0.147x elapsed=0:00:08.44    \nframe=   66 fps=7.3 q=58.0 size=       1KiB time=00:00:01.32 bitrate=   3.8kbits/s speed=0.147x elapsed=0:00:08.98    \nframe=   69 fps=7.3 q=59.0 size=       1KiB time=00:00:01.38 bitrate=   3.7kbits/s speed=0.145x elapsed=0:00:09.51    \nframe=   73 fps=7.2 q=58.0 size=       1KiB time=00:00:01.46 bitrate=   3.5kbits/s speed=0.145x elapsed=0:00:10.09    \nframe=   77 fps=7.3 q=58.0 size=       1KiB time=00:00:01.52 bitrate=   3.3kbits/s speed=0.143x elapsed=0:00:10.61    \nframe=   79 fps=7.1 q=57.0 size=       1KiB time=00:00:01.58 bitrate=   3.2kbits/s speed=0.141x elapsed=0:00:11.18    \nframe=   81 fps=6.9 q=58.0 size=       1KiB time=00:00:01.62 bitrate=   3.1kbits/s speed=0.138x elapsed=0:00:11.76    \nframe=   84 fps=6.8 q=57.0 size=       1KiB time=00:00:01.68 bitrate=   3.0kbits/s speed=0.135x elapsed=0:00:12.41    \nframe=   86 fps=6.6 q=57.0 size=       1KiB time=00:00:01.72 bitrate=   2.9kbits/s speed=0.132x elapsed=0:00:13.05    \nframe=   87 fps=6.4 q=56.0 size=       1KiB time=00:00:01.74 bitrate=   2.9kbits/s speed=0.127x elapsed=0:00:13.68    \nframe=   91 fps=6.4 q=57.0 size=       1KiB time=00:00:01.82 bitrate=   2.8kbits/s speed=0.128x elapsed=0:00:14.20    \nframe=   94 fps=6.4 q=46.0 size=       1KiB time=00:00:01.88 bitrate=   2.7kbits/s speed=0.128x elapsed=0:00:14.73    \nframe=   97 fps=6.4 q=57.0 size=       1KiB time=00:00:01.94 bitrate=   2.6kbits/s speed=0.127x elapsed=0:00:15.26    \nframe=  100 fps=6.3 q=47.0 size=       1KiB time=00:00:02.00 bitrate=   2.5kbits/s speed=0.127x elapsed=0:00:15.79    \nframe=  103 fps=6.3 q=57.0 size=       1KiB time=00:00:02.06 bitrate=   2.5kbits/s speed=0.126x elapsed=0:00:16.33    \nframe=  105 fps=6.2 q=57.0 size=       1KiB time=00:00:02.10 bitrate=   2.4kbits/s speed=0.124x elapsed=0:00:16.87    \nframe=  108 fps=6.2 q=56.0 size=       1KiB time=00:00:02.16 bitrate=   2.3kbits/s speed=0.124x elapsed=0:00:17.42    \nframe=  111 fps=6.2 q=57.0 size=       1KiB time=00:00:02.22 bitrate=   2.3kbits/s speed=0.124x elapsed=0:00:17.97    \nframe=  113 fps=6.1 q=57.0 size=       1KiB time=00:00:02.26 bitrate=   2.2kbits/s speed=0.122x elapsed=0:00:18.54    \nframe=  115 fps=6.0 q=56.0 size=       1KiB time=00:00:02.30 bitrate=   2.2kbits/s speed=0.121x elapsed=0:00:19.07    \nframe=  117 fps=6.0 q=57.0 size=       1KiB time=00:00:02.34 bitrate=   2.2kbits/s speed=0.119x elapsed=0:00:19.62    \nframe=  120 fps=5.9 q=55.0 size=       1KiB time=00:00:02.38 bitrate=   2.1kbits/s speed=0.118x elapsed=0:00:20.19    \nframe=  122 fps=5.9 q=56.0 size=       1KiB time=00:00:02.44 bitrate=   2.1kbits/s speed=0.117x elapsed=0:00:20.77    \nframe=  125 fps=5.9 q=58.0 size=       1KiB time=00:00:02.50 bitrate=   2.0kbits/s speed=0.117x elapsed=0:00:21.36    \nframe=  128 fps=5.8 q=57.0 size=       1KiB time=00:00:02.56 bitrate=   2.0kbits/s speed=0.117x elapsed=0:00:21.92    \nframe=  130 fps=5.8 q=56.0 size=     768KiB time=00:00:02.58 bitrate=2438.5kbits/s speed=0.115x elapsed=0:00:22.48    \nframe=  132 fps=5.7 q=56.0 size=     768KiB time=00:00:02.64 bitrate=2383.1kbits/s speed=0.114x elapsed=0:00:23.10    \nframe=  134 fps=5.7 q=56.0 size=     768KiB time=00:00:02.68 bitrate=2347.6kbits/s speed=0.113x elapsed=0:00:23.70    \nframe=  136 fps=5.6 q=56.0 size=     768KiB time=00:00:02.72 bitrate=2313.0kbits/s speed=0.112x elapsed=0:00:24.29    \nframe=  139 fps=5.6 q=56.0 size=     768KiB time=00:00:02.78 bitrate=2263.1kbits/s speed=0.112x elapsed=0:00:24.84    \nframe=  141 fps=5.5 q=47.0 size=     768KiB time=00:00:02.82 bitrate=2231.0kbits/s speed=0.111x elapsed=0:00:25.42    \nframe=  144 fps=5.6 q=57.0 size=     768KiB time=00:00:02.88 bitrate=2184.5kbits/s speed=0.111x elapsed=0:00:25.93    \nframe=  146 fps=5.5 q=57.0 size=     768KiB time=00:00:02.92 bitrate=2154.6kbits/s speed=0.11x elapsed=0:00:26.47    \nframe=  148 fps=5.5 q=57.0 size=     768KiB time=00:00:02.96 bitrate=2125.5kbits/s speed=0.109x elapsed=0:00:27.05    \nframe=  150 fps=5.4 q=57.0 size=     768KiB time=00:00:03.00 bitrate=2097.2kbits/s speed=0.108x elapsed=0:00:27.69    \nframe=  152 fps=5.4 q=57.0 size=     768KiB time=00:00:03.04 bitrate=2069.6kbits/s speed=0.108x elapsed=0:00:28.24    \nframe=  155 fps=5.4 q=56.0 size=     768KiB time=00:00:03.10 bitrate=2029.5kbits/s speed=0.108x elapsed=0:00:28.80    \nframe=  158 fps=5.4 q=57.0 size=     768KiB time=00:00:03.16 bitrate=1991.0kbits/s speed=0.108x elapsed=0:00:29.35    \nframe=  160 fps=5.3 q=58.0 size=     768KiB time=00:00:03.20 bitrate=1966.1kbits/s speed=0.107x elapsed=0:00:29.90    \nframe=  163 fps=5.4 q=57.0 size=     768KiB time=00:00:03.26 bitrate=1929.9kbits/s speed=0.107x elapsed=0:00:30.44    \nframe=  164 fps=5.3 q=57.0 size=     768KiB time=00:00:03.28 bitrate=1918.1kbits/s speed=0.106x elapsed=0:00:31.07    \nframe=  167 fps=5.3 q=55.0 size=     768KiB time=00:00:03.34 bitrate=1883.7kbits/s speed=0.106x elapsed=0:00:31.63    \nframe=  169 fps=5.2 q=56.0 size=     768KiB time=00:00:03.38 bitrate=1861.4kbits/s speed=0.105x elapsed=0:00:32.26    \nframe=  171 fps=5.2 q=48.0 size=     768KiB time=00:00:03.40 bitrate=1850.4kbits/s speed=0.104x elapsed=0:00:32.82    \nframe=  174 fps=5.2 q=56.0 size=     768KiB time=00:00:03.48 bitrate=1807.9kbits/s speed=0.104x elapsed=0:00:33.40    \nframe=  176 fps=5.2 q=57.0 size=     768KiB time=00:00:03.52 bitrate=1787.3kbits/s speed=0.104x elapsed=0:00:33.97    \nframe=  178 fps=5.2 q=57.0 size=     768KiB time=00:00:03.54 bitrate=1777.2kbits/s speed=0.102x elapsed=0:00:34.55    \nframe=  180 fps=5.1 q=56.0 size=     768KiB time=00:00:03.60 bitrate=1747.6kbits/s speed=0.102x elapsed=0:00:35.15    \nframe=  182 fps=5.1 q=57.0 size=     768KiB time=00:00:03.64 bitrate=1728.4kbits/s speed=0.102x elapsed=0:00:35.71    \nframe=  184 fps=5.1 q=57.0 size=     768KiB time=00:00:03.68 bitrate=1709.6kbits/s speed=0.101x elapsed=0:00:36.30    \nframe=  187 fps=5.1 q=57.0 size=     768KiB time=00:00:03.74 bitrate=1682.2kbits/s speed=0.102x elapsed=0:00:36.84    \nframe=  188 fps=5.0 q=57.0 size=     768KiB time=00:00:03.76 bitrate=1673.3kbits/s speed= 0.1x elapsed=0:00:37.46    \nframe=  190 fps=5.0 q=57.0 size=     768KiB time=00:00:03.80 bitrate=1655.6kbits/s speed=0.0998x elapsed=0:00:38.06    \nframe=  193 fps=5.0 q=56.0 size=     768KiB time=00:00:03.86 bitrate=1629.9kbits/s speed= 0.1x elapsed=0:00:38.61    \nframe=  194 fps=5.0 q=57.0 size=     768KiB time=00:00:03.88 bitrate=1621.5kbits/s speed=0.099x elapsed=0:00:39.19    \nframe=  196 fps=4.9 q=57.0 size=     768KiB time=00:00:03.92 bitrate=1605.0kbits/s speed=0.0987x elapsed=0:00:39.73    \nframe=  198 fps=4.9 q=56.0 size=     768KiB time=00:00:03.96 bitrate=1588.8kbits/s speed=0.0983x elapsed=0:00:40.29    \nframe=  200 fps=4.9 q=56.0 size=     768KiB time=00:00:04.00 bitrate=1572.9kbits/s speed=0.0979x elapsed=0:00:40.84    \nframe=  202 fps=4.9 q=57.0 size=     768KiB time=00:00:04.04 bitrate=1557.3kbits/s speed=0.0976x elapsed=0:00:41.39    \nframe=  204 fps=4.9 q=56.0 size=     768KiB time=00:00:04.08 bitrate=1542.0kbits/s speed=0.0973x elapsed=0:00:41.91    \nframe=  206 fps=4.9 q=57.0 size=     768KiB time=00:00:04.12 bitrate=1527.1kbits/s speed=0.097x elapsed=0:00:42.45    \nframe=  208 fps=4.8 q=57.0 size=     768KiB time=00:00:04.16 bitrate=1512.4kbits/s speed=0.0967x elapsed=0:00:43.01    \nframe=  211 fps=4.8 q=56.0 size=     768KiB time=00:00:04.22 bitrate=1490.9kbits/s speed=0.0969x elapsed=0:00:43.55    \nframe=  212 fps=4.8 q=56.0 size=     768KiB time=00:00:04.24 bitrate=1483.8kbits/s speed=0.0961x elapsed=0:00:44.12    \nframe=  215 fps=4.8 q=55.0 size=     768KiB time=00:00:04.30 bitrate=1463.1kbits/s speed=0.0963x elapsed=0:00:44.65    \nframe=  217 fps=4.8 q=56.0 size=     768KiB time=00:00:04.34 bitrate=1449.6kbits/s speed=0.096x elapsed=0:00:45.19    \nframe=  218 fps=4.8 q=56.0 size=     768KiB time=00:00:04.36 bitrate=1443.0kbits/s speed=0.0952x elapsed=0:00:45.77    \nframe=  221 fps=4.8 q=55.0 size=     768KiB time=00:00:04.42 bitrate=1423.4kbits/s speed=0.0954x elapsed=0:00:46.31    \nframe=  223 fps=4.7 q=56.0 size=     768KiB time=00:00:04.46 bitrate=1410.6kbits/s speed=0.095x elapsed=0:00:46.95    \nframe=  224 fps=4.7 q=57.0 size=     768KiB time=00:00:04.48 bitrate=1404.3kbits/s speed=0.0943x elapsed=0:00:47.53    \nframe=  226 fps=4.7 q=57.0 size=     768KiB time=00:00:04.52 bitrate=1391.9kbits/s speed=0.094x elapsed=0:00:48.07    \nframe=  226 fps=4.6 q=57.0 size=     768KiB time=00:00:04.52 bitrate=1391.9kbits/s speed=0.0929x elapsed=0:00:48.66    \nframe=  226 fps=4.6 q=57.0 size=     768KiB time=00:00:04.52 bitrate=1391.9kbits/s speed=0.0918x elapsed=0:00:49.21    \nframe=  226 fps=4.5 q=57.0 size=     768KiB time=00:00:04.52 bitrate=1391.9kbits/s speed=0.0909x elapsed=0:00:49.74    \nframe=  226 fps=4.5 q=57.0 size=     768KiB time=00:00:04.52 bitrate=1391.9kbits/s speed=0.0899x elapsed=0:00:50.30    \nframe=  226 fps=4.4 q=57.0 size=     768KiB time=00:00:04.52 bitrate=1391.9kbits/s speed=0.0888x elapsed=0:00:50.87    \nframe=  226 fps=4.4 q=57.0 size=     768KiB time=00:00:04.52 bitrate=1391.9kbits/s speed=0.0879x elapsed=0:00:51.42    \nframe=  226 fps=4.3 q=57.0 size=     768KiB time=00:00:04.52 bitrate=1391.9kbits/s speed=0.0869x elapsed=0:00:51.99    \nframe=  226 fps=4.3 q=57.0 size=     768KiB time=00:00:04.52 bitrate=1391.9kbits/s speed=0.086x elapsed=0:00:52.56    \nframe=  226 fps=4.3 q=57.0 size=     768KiB time=00:00:04.52 bitrate=1391.9kbits/s speed=0.0851x elapsed=0:00:53.10    \nframe=  250 fps=4.7 q=56.0 size=     768KiB time=00:00:04.52 bitrate=1391.9kbits/s speed=0.0842x elapsed=0:00:53.65    \n[out#0/webm @ 0000021e2204f040] video:1683KiB audio:0KiB subtitle:0KiB other streams:0KiB global headers:0KiB muxing overhead: 0.144100%\nframe=  250 fps=4.7 q=56.0 Lsize=    1685KiB time=00:00:05.00 bitrate=2760.9kbits/s speed=0.0932x elapsed=0:00:53.65    \n",
  "seconds": 54.354037284851074,
  "probe_out": {}
}